<svg id="Layer_1" data-name="Layer 1" xmlns="http://www.w3.org/2000/svg" viewBox="0 0 681.08 192.65"><path id="Trazado_1" data-name="Trazado 1" d="M242,10.93h-1.23a7.89,7.89,0,0,0-7.88,7.88V171.72a7.88,7.88,0,0,0,7.88,7.88H242a7.89,7.89,0,0,0,7.88-7.88V18.81A7.9,7.9,0,0,0,242,10.93"/><path id="Trazado_2" data-name="Trazado 2" d="M404.05,10.93h-54a7.89,7.89,0,0,0-7.88,7.88V171.72a7.88,7.88,0,0,0,7.88,7.88h1.23a7.89,7.89,0,0,0,7.88-7.88V30.05A3.06,3.06,0,0,1,362.24,27h40.87c29.57,0,47.22,13.89,47.22,37.15v.46c0,22.64-19.54,37.85-48.62,37.85H378.1v16.06H401c18,0,34.42-4.86,46.22-13.68,13.15-9.82,20.1-24,20.1-40.93v-.47c0-31.89-24.85-52.5-63.28-52.5"/><path id="Trazado_3" data-name="Trazado 3" d="M660.06,163.54H565.44a3.06,3.06,0,0,1-3.06-3.06V30.05A3.06,3.06,0,0,1,565.44,27h93.45a7.9,7.9,0,0,0,7.88-7.89v-.29a7.89,7.89,0,0,0-7.88-7.88H553.27a7.9,7.9,0,0,0-7.89,7.88V171.72a7.89,7.89,0,0,0,7.89,7.88H660.06a7.88,7.88,0,0,0,7.88-7.88v-.29a7.88,7.88,0,0,0-7.88-7.88"/><path id="Trazado_4" data-name="Trazado 4" d="M580.83,86.53v16.06h43.71a7.89,7.89,0,0,0,7.88-7.88v-.29a7.9,7.9,0,0,0-7.88-7.89Z"/><path id="Trazado_5" data-name="Trazado 5" d="M25.67,13.88a7.85,7.85,0,0,0-6.22-3.05h-.78A7.89,7.89,0,0,0,12.48,23.6l53.65,68a3,3,0,0,1,0,3.78L10.08,167.31A7.88,7.88,0,0,0,16.3,180h.22a7.85,7.85,0,0,0,6.19-3l65.41-82.8Z"/><path id="Trazado_6" data-name="Trazado 6" d="M146.9,23.66a7.87,7.87,0,0,0-6.21-12.73h-.38A7.91,7.91,0,0,0,134.08,14L91.15,69.55l10,12.8Z"/><path id="Trazado_7" data-name="Trazado 7" d="M101.33,105.42,91.14,118.33l45,58.21a8,8,0,0,0,6.23,3.06H143a7.88,7.88,0,0,0,6.22-12.73Z"/></svg>